<svg width="45" height="45" viewBox="0 0 45 45" fill="none" xmlns="http://www.w3.org/2000/svg">
<path d="M39.7819 13.9294L34.3406 32.5791C33.6947 34.7916 31.3078 35.0794 30.1472 33.0947L24.1941 22.9134L18.9947 30.9534C17.8819 32.6728 15.6694 32.6831 14.5453 30.9684L12.1716 27.345L11.0841 28.4597C9.94219 29.6316 7.99969 29.8744 6.60094 29.0222L3.82594 27.3347C5.96906 35.6447 13.5169 41.7844 22.5 41.7844C33.1509 41.7844 41.7853 33.15 41.7853 22.4991C41.7853 19.4203 41.0644 16.5112 39.7819 13.9294ZM37.4775 10.3491C33.9422 5.99625 28.5469 3.21469 22.5 3.21469C11.8491 3.21469 3.21469 11.8491 3.21469 22.5C3.21469 22.7369 3.21875 22.9728 3.22687 23.2078L8.27156 26.2772C8.39344 26.3512 8.68688 26.3147 8.78344 26.2153L10.1475 24.8175C11.4844 23.4459 13.5938 23.6503 14.6438 25.2525L16.7625 28.4859L22.0397 20.3259C23.1722 18.5747 25.4091 18.6234 26.4628 20.4253L31.8497 29.6391L37.4775 10.3491ZM22.5 45C10.0734 45 0 34.9266 0 22.5C0 10.0734 10.0734 0 22.5 0C34.9266 0 45 10.0734 45 22.5C45 34.9266 34.9266 45 22.5 45Z" fill="white"/>
</svg>
